<svg xmlns="http://www.w3.org/2000/svg" xmlns:xlink="http://www.w3.org/1999/xlink" width="50" height="42" viewBox="0 0 50 42"><defs><style>.a{fill:none;stroke:#fff;}.b{clip-path:url(#a);}.c,.d{fill:#3131a1;}.c{opacity:0;}</style><clipPath id="a"><rect class="a" width="50" height="42" transform="translate(11 20)"/></clipPath></defs><g class="b" transform="translate(-11 -20)"><g transform="translate(24 29)"><path class="c" d="M0,0H40.91V32H0Z" transform="translate(-8.455 -4)"/><path class="d" d="M33.52,14.824H7.195L18.24,4.109a.7.7,0,0,0,0-1l-1.035-1a.748.748,0,0,0-1.036,0L2.108,15.741a.7.7,0,0,0,0,1.005l14.061,13.64a.748.748,0,0,0,1.036,0l1.035-1a.7.7,0,0,0,0-1L7.195,17.664H33.52a.721.721,0,0,0,.732-.71v-1.42A.721.721,0,0,0,33.52,14.824Z" transform="translate(-5.126 -4.244)"/></g></g></svg>